# xmcd
#
# Track frame offsets:
#	150
#	18429
#	39751
#	61958
#	80262
#	103492
#	127881
#	148361
#	166624
#	187942
#	206153
#	225786
#	235312
#
# Disc length: 3276 seconds
#
# Revision: 1
# Processed by: cddbd v1.5.2PL0 Copyright (c) Steve Scherf et al.
# Submitted via: audiograbber 1.83.01
#
DISCID=a10cca0d
DTITLE=Various Artist - XMiX Urban and Club Series 177
DYEAR=2013
DGENRE=Hip-Hop
TTITLE0=2 Chainz Feat. Pharrell - Feds Watching
TTITLE1=Avicii - Wake Me Up
TTITLE2=Justin Timberlake - Take Back The Night
TTITLE3=Chris Brown Feat. Nicki Minaj - Love More
TTITLE4=Big Sean Feat. Lil Wayne and Jhene Aiko - Beware
TTITLE5=Nelly Feat. Nicki Minaj and Pharrell - Get Like Me
TTITLE6=Karmin - Acapella
TTITLE7=Miley Cyrus - We Cant Stop
TTITLE8=Pharrell Feat. Jay-Z - Frontin
TTITLE9=Chris Brown Feat. Nicki Minaj - Love More (XMiX Dirty Version)
TTITLE10=Karmin - Acapella Vs. Got Money (Mash-Up) (Dirty)
TTITLE11=Justin Timberlake - Take Back The Night (XMiX Party Break)
TTITLE12=Big Sean Feat. Lil Wayne and Jhene Aiko - Beware (XMiX Party Break)
EXTD=
EXTT0=
EXTT1=
EXTT2=
EXTT3=
EXTT4=
EXTT5=
EXTT6=
EXTT7=
EXTT8=
EXTT9=
EXTT10=
EXTT11=
EXTT12=
PLAYORDER=
